<svg width="134" height="31" viewBox="0 0 134 31" fill="none" xmlns="http://www.w3.org/2000/svg">
<path d="M45.2035 24.7783C44.1635 24.5806 43.1667 24.2014 42.2585 23.6581V20.794C43.2051 21.3379 44.2172 21.7592 45.2704 22.0478C46.3466 22.3608 47.461 22.5235 48.5818 22.5316C49.7898 22.5316 50.6694 22.3883 51.2272 22.0956C51.4915 21.9708 51.7124 21.7698 51.8612 21.5185C52.01 21.2672 52.0801 20.9772 52.0622 20.6858C52.0824 20.2579 51.9465 19.8373 51.6798 19.5019C51.3146 19.1306 50.8669 18.8504 50.373 18.684C49.4692 18.3445 48.5479 18.0534 47.6129 17.812C46.5363 17.5254 45.4885 17.1397 44.4832 16.66C43.7809 16.3281 43.1802 15.8151 42.743 15.1738C42.3252 14.4671 42.1215 13.6546 42.1565 12.8347C42.1214 12.1417 42.2721 11.4519 42.5932 10.8365C42.9142 10.2212 43.3939 9.70246 43.9828 9.33404C45.196 8.54055 46.83 8.14488 48.8846 8.147C49.9404 8.14503 50.9939 8.24521 52.0303 8.44615C52.8949 8.5928 53.7307 8.8753 54.5068 9.28313V12.0932C53.7577 11.6762 52.9512 11.3717 52.1132 11.1894C51.1639 10.9733 50.1929 10.8665 49.2193 10.8712C48.0368 10.8712 47.1317 11.0144 46.5102 11.304C46.2132 11.4309 45.9634 11.6473 45.7954 11.9228C45.6274 12.1984 45.5497 12.5194 45.5732 12.8411C45.5548 13.2574 45.6987 13.6646 45.9748 13.9772C46.3348 14.324 46.7715 14.5813 47.2496 14.7283C47.8382 14.9404 48.7805 15.213 50.0766 15.5461C52.1079 16.1062 53.5187 16.7639 54.3091 17.5192C55.0996 18.2745 55.4958 19.3216 55.4979 20.6603C55.5129 21.3102 55.3647 21.9536 55.0669 22.5317C54.7691 23.1098 54.3311 23.6042 53.7928 23.97C52.654 24.7911 50.969 25.2027 48.738 25.2048C47.5478 25.1911 46.3627 25.0481 45.2035 24.7783Z" fill="#252B42"/>
<path d="M61.05 22.974C59.3629 21.4889 58.5205 19.4002 58.5226 16.7079C58.5226 14.0792 59.2758 11.9968 60.7823 10.4607C62.2887 8.9247 64.4358 8.15561 67.2235 8.15349C68.8595 8.10343 70.4817 8.4657 71.9405 9.20687C73.1867 9.85992 74.2073 10.8723 74.8695 12.1124C75.5446 13.4176 75.8841 14.8699 75.8575 16.3387V18.0095H61.7352C61.8478 19.5285 62.4853 20.6594 63.6475 21.4019C64.8098 22.1445 66.4033 22.5179 68.4282 22.5221C69.4715 22.52 70.5125 22.4252 71.5389 22.2389C72.4874 22.0772 73.4181 21.8246 74.3181 21.4847V24.1866C73.4045 24.5275 72.4567 24.7687 71.4911 24.9058C70.3456 25.0919 69.1872 25.1866 68.0267 25.189C65.0584 25.1933 62.7328 24.4549 61.05 22.974ZM72.6767 15.6386C72.6321 14.1237 72.136 12.9483 71.1883 12.1124C70.2407 11.2765 68.8968 10.8596 67.1566 10.8617C65.4568 10.8617 64.1405 11.2956 63.2077 12.1633C62.7364 12.6106 62.3624 13.1499 62.109 13.7478C61.8557 14.3458 61.7284 14.9894 61.7352 15.6386H72.6767Z" fill="#252B42"/>
<path d="M79.5354 8.65614H82.8182V11.5203C83.5125 10.5218 84.5004 9.76338 85.6452 9.34991C87.0009 8.85853 88.4357 8.62117 89.8777 8.64977V11.288C88.3623 11.2489 86.856 11.5343 85.4603 12.125C84.8795 12.371 84.3543 12.7314 83.9162 13.1847C83.4781 13.638 83.1361 14.1749 82.9106 14.7632V24.686H79.5354V8.65614Z" fill="#252B42"/>
<path d="M99.0982 24.5047C97.9777 24.0044 96.9786 23.2684 96.1692 22.347V24.6861H92.8896V0H96.2712V10.7916C97.0351 9.90366 98.0138 9.22554 99.1142 8.82168C100.311 8.36944 101.582 8.14284 102.862 8.15337C104.377 8.13096 105.872 8.50511 107.197 9.23858C108.463 9.94871 109.505 10.9967 110.209 12.2651C110.924 13.6416 111.297 15.1697 111.297 16.7205C111.297 18.2712 110.924 19.7993 110.209 21.1759C109.507 22.4315 108.462 23.4623 107.197 24.1482C105.866 24.8628 104.373 25.2254 102.862 25.2016C101.573 25.2275 100.292 24.9904 99.0982 24.5047ZM105.055 21.7964C105.93 21.3243 106.65 20.6106 107.13 19.7406C107.624 18.8035 107.882 17.7604 107.882 16.7014C107.882 15.6423 107.624 14.5992 107.13 13.6621C106.646 12.7901 105.928 12.0712 105.055 11.5872C104.147 11.0932 103.128 10.8411 102.094 10.8552C100.793 10.8364 99.5179 11.2211 98.4448 11.9564C97.4006 12.6551 96.6322 13.6946 96.2712 14.8969V18.5058C96.6656 19.6912 97.4337 20.7173 98.4608 21.4304C99.5286 22.1623 100.799 22.5418 102.094 22.5157C103.126 22.5328 104.145 22.2875 105.055 21.8028V21.7964Z" fill="#252B42"/>
<path d="M115.231 23.7091C114.059 22.7161 113.473 21.3731 113.475 19.6801C113.475 17.9022 114.038 16.5231 115.165 15.5429C116.291 14.5628 117.892 14.078 119.968 14.0886C122.175 14.0886 124.049 14.5341 125.59 15.4252V14.5882C125.59 13.3153 125.204 12.3743 124.433 11.7654C123.661 11.1565 122.451 10.851 120.803 10.8489C119.839 10.8454 118.878 10.9403 117.934 11.1321C117.077 11.2986 116.24 11.5612 115.442 11.915V9.1781C116.276 8.81732 117.154 8.56388 118.052 8.42387C119.08 8.2395 120.122 8.14473 121.166 8.14062C123.822 8.14063 125.791 8.72513 127.072 9.89414C128.353 11.0632 128.99 12.6841 128.984 14.7569V24.6797H125.797V22.8753C125.117 23.6263 124.276 24.2147 123.336 24.597C122.232 25.0155 121.056 25.2144 119.875 25.1825C117.95 25.191 116.402 24.6998 115.231 23.7091ZM123.649 21.9874C124.465 21.6143 125.144 20.9956 125.59 20.2179V18.0443C124.145 17.1105 122.457 16.6223 120.736 16.6409C119.442 16.6409 118.477 16.8912 117.842 17.3919C117.204 17.8948 116.886 18.6649 116.886 19.6801C116.886 21.6447 118.168 22.6249 120.732 22.6207C121.739 22.6354 122.736 22.4187 123.646 21.9874H123.649Z" fill="#252B42"/>
<path d="M20.283 26.9169V26.9901C20.2815 26.9974 20.2815 27.005 20.283 27.0124V27.0633C20.2845 27.0909 20.2845 27.1185 20.283 27.146C20.2695 27.2287 20.2514 27.3105 20.2288 27.3911C20.2288 27.4293 20.2097 27.4675 20.197 27.5088C20.1842 27.5502 20.1747 27.5852 20.1619 27.6266L20.1237 27.7412C20.1237 27.7794 20.095 27.8175 20.079 27.8557C20.0631 27.8939 20.0504 27.9321 20.0344 27.9703C20.0185 28.0085 20.0121 28.0244 19.9994 28.053C19.9611 28.1358 19.9197 28.2217 19.8751 28.3044C19.8304 28.3872 19.7954 28.4445 19.7508 28.5113L19.6998 28.594C19.6201 28.7182 19.5308 28.8455 19.4416 28.9632C19.2332 29.2341 19.0053 29.4894 18.7596 29.727C18.2158 30.2122 17.5779 30.5805 16.8855 30.809C16.4801 30.931 16.0595 30.9953 15.6362 31C14.6869 30.9996 13.7666 30.6738 13.0291 30.0771L0.780851 17.847C0.297977 17.1779 0.038147 16.374 0.038147 15.5493C0.038147 14.7245 0.297977 13.9207 0.780851 13.2516L4.14329 9.86548C3.99544 10.311 3.92012 10.7773 3.92019 11.2466C3.92019 11.3198 3.92019 11.3867 3.92019 11.4471C3.95119 12.1103 4.13322 12.7576 4.45243 13.34C4.77165 13.9223 5.21965 14.4243 5.76237 14.8078L16.1716 25.2016C16.4354 25.5605 16.7524 25.877 17.1118 26.1404C17.8519 26.6801 18.7451 26.97 19.6615 26.9678C19.7571 26.9678 19.8528 26.9678 19.942 26.9678C20.0312 26.9678 20.1683 26.9328 20.283 26.9169Z" fill="#00A0C1"/>
<path d="M24.592 22.2229C24.5923 22.7069 24.5037 23.1869 24.3307 23.639C24.2254 23.9071 24.0919 24.1631 23.9323 24.4028C23.6442 24.8337 23.2738 25.2036 22.8423 25.4912L20.4838 27.8462C20.4838 27.8048 20.5125 27.7635 20.5252 27.7189V27.6871C20.5252 27.6489 20.5507 27.6075 20.5603 27.5662C20.5603 27.5248 20.5826 27.4802 20.5953 27.4357C20.5939 27.4294 20.5939 27.4229 20.5953 27.4166L20.624 27.2829C20.624 27.2479 20.624 27.2097 20.6463 27.1747C20.6479 27.1589 20.6479 27.1429 20.6463 27.127C20.6479 27.1015 20.6479 27.076 20.6463 27.0506C20.6654 26.9315 20.6782 26.8114 20.6846 26.691V26.4332V26.3473C20.6761 25.6701 20.5108 25.004 20.2018 24.4011C19.8927 23.7983 19.4482 23.275 18.903 22.8721L7.11052 11.0971C6.78026 10.5567 6.58549 9.94475 6.54277 9.31314C6.50004 8.68153 6.61062 8.04896 6.86511 7.46915C7.00547 7.14714 7.18996 6.84618 7.4133 6.57489L10.5558 3.43701L10.524 3.53249C10.524 3.5484 10.524 3.56113 10.524 3.57386C10.524 3.58659 10.5016 3.64706 10.4921 3.68206L10.473 3.76163C10.4411 3.88219 10.4155 4.00435 10.3965 4.1276V4.2008C10.3965 4.22944 10.3965 4.2549 10.3965 4.28036C10.3965 4.30582 10.3965 4.309 10.3965 4.32173C10.3965 4.33446 10.3965 4.4172 10.3805 4.46175V4.6177V4.89457V4.93276C10.3988 5.75013 10.651 6.54522 11.1072 7.2241C11.421 7.69224 11.8225 8.09533 12.2896 8.41114L23.9419 20.0493C24.3687 20.6938 24.5949 21.4501 24.592 22.2229Z" fill="#00A0C1"/>
<path d="M31.234 15.5494C31.2362 16.3745 30.9762 17.179 30.4914 17.8471L27.1513 21.1823C27.2864 20.755 27.3552 20.3096 27.3553 19.8616C27.3553 19.7884 27.3553 19.7216 27.3553 19.6643C27.3173 18.8174 27.0302 18.0005 26.5298 17.3156C26.2676 16.952 25.9516 16.6301 25.5928 16.3609L15.0433 5.83027C14.8617 5.60749 14.6577 5.40382 14.4346 5.22243C13.6613 4.59313 12.6944 4.24921 11.6968 4.24861H11.4387C11.2179 4.26243 10.9985 4.29221 10.7821 4.33771V4.25178C10.7821 4.25178 10.7821 4.22633 10.7821 4.21678L10.8012 4.08948C10.8012 4.05766 10.8012 4.01947 10.8235 3.98446C10.822 3.97497 10.822 3.96531 10.8235 3.95582C10.8235 3.92399 10.8235 3.89217 10.8458 3.86035C10.8682 3.82853 10.8713 3.75214 10.8873 3.69804L10.9128 3.61212C10.951 3.49437 10.9956 3.37662 11.0434 3.26524L11.0913 3.15385L11.1454 3.04565L11.1932 2.95017L11.2793 2.79742L11.3207 2.73058C11.3654 2.6542 11.4163 2.58101 11.4673 2.50782L12.3597 1.61673L12.4299 1.59128H12.4617L12.5191 1.52127C13.18 0.725028 14.129 0.221515 15.1598 0.120204C16.1905 0.0188933 17.2196 0.327972 18.0233 0.98025L30.7719 13.7099C31.0749 14.2759 31.2336 14.9077 31.234 15.5494Z" fill="#00A0C1"/>
</svg>
