<svg width="95" height="95" viewBox="0 0 95 95" fill="none" xmlns="http://www.w3.org/2000/svg">
<path d="M61.9966 82.4423V82.6674C61.992 82.6899 61.992 82.7132 61.9966 82.736V82.8925C62.0011 82.9774 62.0011 83.0623 61.9966 83.1469C61.9552 83.4012 61.8998 83.6528 61.8306 83.9007C61.8306 84.0182 61.7721 84.1357 61.7332 84.2627C61.694 84.39 61.6649 84.4977 61.6257 84.625L61.5087 84.9774C61.5087 85.0949 61.4208 85.2121 61.3718 85.3296C61.3231 85.4471 61.2843 85.5646 61.2353 85.682C61.1866 85.7995 61.167 85.8484 61.1281 85.9364C61.0108 86.191 60.884 86.4552 60.7474 86.7096C60.6105 86.9642 60.5034 87.1405 60.3668 87.3459L60.2106 87.6003C59.9665 87.9822 59.6931 88.3738 59.4199 88.7357C58.7817 89.5689 58.0838 90.3541 57.3314 91.0848C55.6661 92.5771 53.7126 93.7098 51.5923 94.4126C50.3508 94.7878 49.0628 94.9855 47.7665 95C44.8594 94.9988 42.0411 93.9968 39.7827 92.1616L2.27441 54.5475C0.795687 52.4896 0 50.0172 0 47.4808C0 44.9441 0.795687 42.472 2.27441 40.4141L12.5713 30C12.1186 31.3702 11.8879 32.8043 11.8881 34.2477C11.8881 34.4728 11.8881 34.6786 11.8881 34.8643C11.9831 36.904 12.5405 38.8948 13.518 40.686C14.4956 42.4769 15.8675 44.0208 17.5295 45.2003L49.4061 77.1668C50.2139 78.2706 51.1847 79.244 52.2853 80.0541C54.5517 81.714 57.287 82.6056 60.0933 82.5988C60.3861 82.5988 60.6791 82.5988 60.9523 82.5988C61.2255 82.5988 61.6453 82.4912 61.9966 82.4423Z" fill="#00A0C1"/>
<path d="M74.9999 67.7218C75.0008 69.2089 74.731 70.6838 74.2041 72.0729C73.8834 72.8967 73.4768 73.6833 72.9907 74.4198C72.1132 75.7437 70.9851 76.8803 69.6709 77.764L62.4876 85C62.4876 84.8728 62.575 84.7459 62.6136 84.6089V84.5111C62.6136 84.3938 62.6913 84.2666 62.7206 84.1397C62.7206 84.0125 62.7885 83.8754 62.8271 83.7387C62.8229 83.7193 62.8229 83.6994 62.8271 83.68L62.9146 83.2692C62.9146 83.1617 62.9146 83.0443 62.9825 82.9367C62.9873 82.8882 62.9873 82.839 62.9825 82.7902C62.9873 82.7118 62.9873 82.6335 62.9825 82.5554C63.0406 82.1895 63.0796 81.8205 63.0991 81.4505V80.6584V80.3945C63.0732 78.3137 62.5698 76.267 61.6287 74.4145C60.6872 72.5624 59.3334 70.9545 57.6729 69.7165L21.7565 33.5365C20.7506 31.8761 20.1574 29.9958 20.0273 28.0551C19.8971 26.1144 20.2339 24.1707 21.009 22.3892C21.4365 21.3998 21.9984 20.4751 22.6787 19.6415L32.2498 10L32.1529 10.2934C32.1529 10.3423 32.1529 10.3814 32.1529 10.4205C32.1529 10.4596 32.0847 10.6454 32.0558 10.7529L31.9976 10.9974C31.9004 11.3679 31.8225 11.7432 31.7646 12.1219V12.3468C31.7646 12.4348 31.7646 12.5131 31.7646 12.5913C31.7646 12.6695 31.7646 12.6793 31.7646 12.7184C31.7646 12.7575 31.7646 13.0117 31.7159 13.1486V13.6278V14.4785V14.5959C31.7716 17.1073 32.5397 19.5503 33.9292 21.6363C34.8849 23.0747 36.1078 24.3132 37.5304 25.2836L73.0199 61.0431C74.3198 63.0234 75.0088 65.3473 74.9999 67.7218Z" fill="#00A0C1"/>
<path d="M95 47.6318C95.0066 50.1759 94.2184 52.6564 92.7488 54.7164L82.6233 65C83.0328 63.6825 83.2414 62.3092 83.2417 60.9278C83.2417 60.7021 83.2417 60.4962 83.2417 60.3195C83.1265 57.7082 82.2561 55.1894 80.7392 53.0776C79.9443 51.9565 78.9864 50.964 77.8987 50.1339L45.9178 17.6643C45.3673 16.9774 44.7489 16.3495 44.0726 15.7902C41.7283 13.8498 38.7971 12.7894 35.7729 12.7875H34.9905C34.3211 12.8302 33.656 12.922 33 13.0623V12.7973C33 12.7973 33 12.7188 33 12.6894L33.0579 12.2969C33.0579 12.1988 33.0579 12.081 33.1255 11.9731C33.121 11.9438 33.121 11.914 33.1255 11.8848C33.1255 11.7866 33.1255 11.6885 33.1931 11.5904C33.261 11.4923 33.2704 11.2568 33.3189 11.0899L33.3962 10.825C33.512 10.462 33.6472 10.0989 33.7921 9.75547L33.9373 9.41202L34.1013 9.0784L34.2463 8.784L34.5073 8.31302L34.6328 8.10693C34.7683 7.87142 34.9226 7.64575 35.0772 7.42008L37.7825 4.67254L37.9953 4.59407H38.0917L38.2657 4.37821C40.2692 1.92311 43.1461 0.370609 46.271 0.0582316C49.3956 -0.254144 52.5153 0.698853 54.9517 2.71005L93.5991 41.96C94.5176 43.7052 94.9987 45.6532 95 47.6318Z" fill="#00A0C1"/>
</svg>
