<svg aria-hidden="true" style="width:0;height:0;position:absolute;overflow:hidden" xmlns="http://www.w3.org/2000/svg"><defs><symbol id="icon-burger-menu" viewBox="0 0 55 32"><path d="M1.306 0h52.245v5.224H1.306V0zm13.061 13.061h39.184v5.224H14.367v-5.224zm16.327 13.061h22.857v5.224H30.694v-5.224z"/></symbol><symbol id="icon-choose-1" viewBox="0 0 33 32"><path fill="#00a0c1" style="fill:var(--color1,#00a0c1)" d="M16.56 15.201c2.869 0 5.101-2.33 5.101-5.19s-2.338-5.084-5.208-5.084a5.094 5.094 0 0 0-5.101 5.084c0 2.86 2.338 5.19 5.208 5.19zm-.106-8.155c.106 0 .106 0 0 0 1.7 0 3.082 1.377 3.082 3.072s-1.382 2.966-3.082 2.966a2.966 2.966 0 0 1-2.976-2.966c0-1.695 1.382-3.072 2.976-3.072zM32.289 14.566c-2.019-1.801-4.676-2.754-7.439-2.648H24c-.213.847-.531 1.589-.957 2.224.638-.106 1.169-.106 1.807-.106 2.019-.106 4.039.53 5.633 1.695v7.626h2.126v-8.474l-.319-.318zM22.406 5.139c.531-1.271 2.019-1.907 3.401-1.377 1.275.53 1.913 2.012 1.382 3.389-.425.953-1.382 1.589-2.338 1.589-.213 0-.531 0-.744-.106.106.53.106 1.059.106 1.483v.636c.213 0 .425.106.638.106 2.657 0 4.782-2.118 4.782-4.66 0-2.648-2.126-4.766-4.676-4.766-1.7 0-3.188.847-4.038 2.33.531.318 1.063.741 1.488 1.377zM10.29 14.248c-.425-.635-.744-1.377-.956-2.224h-.85a10.956 10.956 0 0 0-7.439 2.542l-.319.318v8.474h2.126v-7.626c1.7-1.165 3.613-1.801 5.633-1.695.638 0 1.275.106 1.807.212zM8.483 10.753c.213 0 .425 0 .638-.106v-.636c0-.53 0-1.059.106-1.483-.213.106-.531.106-.744.106-1.382 0-2.551-1.165-2.551-2.542S7.101 3.55 8.483 3.55c1.063 0 2.019.636 2.444 1.589.425-.53 1.063-1.059 1.594-1.483C11.139 1.432 8.27.69 6.038 2.067S3.062 6.304 4.444 8.528c.85 1.377 2.338 2.224 4.038 2.224zM25.275 20.921l-.213-.318c-2.126-2.33-5.101-3.707-8.29-3.601-3.188-.106-6.27 1.271-8.396 3.601l-.213.318v8.05c0 .953.744 1.801 1.807 1.801h13.603c.956 0 1.807-.847 1.807-1.801v-8.05h-.106zm-2.125 7.732H10.291v-6.991c1.7-1.695 4.039-2.542 6.483-2.542 2.338-.106 4.676.847 6.377 2.542v6.991z"/></symbol><symbol id="icon-choose-2" viewBox="0 0 57 32"><path fill="#00a0c1" style="fill:var(--color1,#00a0c1)" d="M51.141 14.557a5.582 5.582 0 0 0-1.994.384L42.344 9.27c.167-.618.287-1.26.287-1.936 0-4.004-3.161-7.222-7.093-7.222s-7.093 3.218-7.093 7.222c0 1.144.284 2.21.743 3.169l-8.253 9.932a5.7 5.7 0 0 0-1.001-.101 5.48 5.48 0 0 0-1.453.214l-7.271-7.404c.128-.471.213-.959.213-1.476 0-3.201-2.531-5.778-5.674-5.778S.075 8.467.075 11.668c0 3.201 2.531 5.778 5.674 5.778a5.48 5.48 0 0 0 1.453-.214l7.271 7.404c-.136.48-.208.977-.213 1.476 0 3.201 2.531 5.778 5.674 5.778s5.674-2.577 5.674-5.778c0-.685-.136-1.329-.349-1.939l8.264-9.943c.644.191 1.311.326 2.014.326a6.928 6.928 0 0 0 3.214-.812l6.806 5.671a6.153 6.153 0 0 0-.091.919c0 3.201 2.531 5.778 5.674 5.778s5.674-2.577 5.674-5.778-2.531-5.778-5.674-5.778z"/></symbol><symbol id="icon-choose-3" viewBox="0 0 24 32"><path fill="#00a0c1" style="fill:var(--color1,#00a0c1)" d="M6.043 22.663c-.541-.543-.259-.39-1.563-.741-.592-.159-1.112-.466-1.582-.832L.075 28.042a1 1 0 0 0 .96 1.377l3.278-.126 2.255 2.393a.994.994 0 0 0 1.645-.31l3.239-7.976c-.675.377-1.423.599-2.197.599a4.5 4.5 0 0 1-3.211-1.336zm17.775 5.38-2.823-6.952c-.47.367-.991.673-1.582.832-1.311.353-1.024.199-1.563.741A4.506 4.506 0 0 1 14.638 24c-.774 0-1.523-.222-2.197-.599l3.239 7.976a.994.994 0 0 0 1.645.31l2.256-2.393 3.279.126a1 1 0 0 0 .96-1.377zm-7.454-6.794c.951-.972 1.06-.888 2.414-1.259a2.535 2.535 0 0 0 1.771-1.811c.465-1.775.345-1.561 1.615-2.859a2.6 2.6 0 0 0 .648-2.474c-.465-1.774-.465-1.526 0-3.302a2.604 2.604 0 0 0-.648-2.474c-1.27-1.299-1.149-1.085-1.615-2.859A2.533 2.533 0 0 0 18.778 2.4c-1.735-.476-1.526-.351-2.797-1.651a2.468 2.468 0 0 0-2.42-.663c-1.734.475-1.492.476-3.229 0a2.468 2.468 0 0 0-2.42.663C6.642 2.048 6.851 1.924 5.116 2.4a2.535 2.535 0 0 0-1.771 1.811C2.88 5.985 3 5.772 1.73 7.07a2.6 2.6 0 0 0-.648 2.474c.465 1.773.465 1.525 0 3.301a2.604 2.604 0 0 0 .648 2.474c1.27 1.299 1.149 1.084 1.615 2.859a2.533 2.533 0 0 0 1.771 1.811c1.393.381 1.496.321 2.413 1.259a2.464 2.464 0 0 0 3.095.364 2.465 2.465 0 0 1 2.646 0 2.463 2.463 0 0 0 3.094-.364zM6.076 10.996c0-3.314 2.628-6.001 5.87-6.001s5.87 2.687 5.87 6.001c0 3.314-2.628 6.001-5.87 6.001s-5.87-2.687-5.87-6.001z"/></symbol><symbol id="icon-choose-4" viewBox="0 0 37 32"><path fill="#00a0c1" style="fill:var(--color1,#00a0c1)" d="M33.24 6.654h-3.957V2.697A2.642 2.642 0 0 0 26.645.059H10.818A2.642 2.642 0 0 0 8.18 2.697v3.957H4.223a3.958 3.958 0 0 0-3.957 3.957v18.465a2.642 2.642 0 0 0 2.638 2.638h31.654a2.642 2.642 0 0 0 2.638-2.638V10.611a3.958 3.958 0 0 0-3.957-3.957zM10.818 2.697h15.827v3.957H10.818V2.697zm23.741 26.379H2.905v-11.87h10.551v6.595h10.551v-6.595h10.551v11.87zM16.094 17.205h5.276v3.957h-5.276v-3.957zM2.905 14.567V10.61a1.322 1.322 0 0 1 1.319-1.319H33.24a1.322 1.322 0 0 1 1.319 1.319v3.957H2.905z"/></symbol><symbol id="icon-company-1" viewBox="0 0 37 32"><path d="M33.24 6.654h-3.957V2.697A2.642 2.642 0 0 0 26.645.059H10.818A2.642 2.642 0 0 0 8.18 2.697v3.957H4.223a3.958 3.958 0 0 0-3.957 3.957v18.465a2.642 2.642 0 0 0 2.638 2.638h31.654a2.642 2.642 0 0 0 2.638-2.638V10.611a3.958 3.958 0 0 0-3.957-3.957zM10.818 2.697h15.827v3.957H10.818V2.697zm23.741 26.379H2.905v-11.87h10.551v6.595h10.551v-6.595h10.551v11.87zM16.094 17.205h5.276v3.957h-5.276v-3.957zM2.905 14.567V10.61a1.322 1.322 0 0 1 1.319-1.319H33.24a1.322 1.322 0 0 1 1.319 1.319v3.957H2.905z"/></symbol><symbol id="icon-company-2" viewBox="0 0 32 32"><path d="M30.8 6.326V1.265A1.27 1.27 0 0 0 29.52.001H2.48A1.27 1.27 0 0 0 1.2 1.265v5.061A1.27 1.27 0 0 0 0 7.586v5.204a7.046 7.046 0 0 0 1.2 3.924v13.632c0 .695.572 1.264 1.28 1.264h27.04a1.27 1.27 0 0 0 1.28-1.264V16.714c.244-.36.453-.743.624-1.142A6.99 6.99 0 0 0 32 12.79V7.586a1.27 1.27 0 0 0-1.2-1.26zM4.08 2.845h23.84v3.477H4.08V2.845zm14.48 25.924h-5.12v-4.113h5.12v4.113zm9.376 0H21.12v-5.378a1.27 1.27 0 0 0-1.28-1.264h-7.68a1.27 1.27 0 0 0-1.28 1.264v5.378h-6.8v-9.57c.116.055.236.111.36.158.892.371 1.84.557 2.816.557a7.31 7.31 0 0 0 4.364-1.43.025.025 0 0 1 .024 0c.477.353.997.646 1.548.873.892.371 1.84.557 2.816.557a7.31 7.31 0 0 0 4.364-1.43.025.025 0 0 1 .024 0c.477.353.997.646 1.548.873.892.371 1.84.557 2.816.557a7.31 7.31 0 0 0 3.176-.715v9.57zM29.12 12.79c0 2.363-1.96 4.279-4.372 4.279A4.39 4.39 0 0 1 20.94 14.9a.64.64 0 0 0-.556-.32h-.024a.646.646 0 0 0-.556.32c-.384.661-.938 1.21-1.606 1.591s-1.427.58-2.198.578a4.384 4.384 0 0 1-3.8-2.161.66.66 0 0 0-1.144 0c-.386.659-.941 1.205-1.609 1.585s-1.425.578-2.195.577c-2.412 0-4.372-1.916-4.372-4.279V9.188c0-.012.008-.02.02-.02h26.2c.012 0 .02.008.02.02v3.603z"/></symbol><symbol id="icon-company-3" viewBox="0 0 32 32"><path d="M19.428 9.083h7.999v2.297h-7.999V9.083zM19.428 14.825h7.999v2.297h-7.999v-2.297zM19.428 20.567h7.999v2.297h-7.999v-2.297z"/><path d="M29.712 3.341H2.288c-.606.001-1.187.243-1.615.673S.004 5.028.003 5.637v20.672c.001.609.242 1.193.67 1.623s1.009.673 1.615.673h27.424c.606-.001 1.187-.243 1.615-.674s.669-1.014.67-1.623V5.636c-.001-.609-.242-1.193-.67-1.623s-1.009-.673-1.615-.673zM2.288 5.638h12.569V26.31H2.288V5.638zM17.143 26.31V5.638h12.569l.002 20.672H17.143z"/></symbol><symbol id="icon-footer-1" viewBox="0 0 32 32"><path fill="#335bf5" style="fill:var(--color3,#335bf5)" d="M30.72 0H1.28C.572 0 0 .572 0 1.28v29.44C0 31.428.572 32 1.28 32h29.44c.708 0 1.28-.572 1.28-1.28V1.28C32 .572 31.428 0 30.72 0zm-3.696 9.34h-2.556c-2.004 0-2.392.952-2.392 2.352v3.084h4.784l-.624 4.828h-4.16V32h-4.988V19.608h-4.172v-4.832h4.172v-3.56c0-4.132 2.524-6.384 6.212-6.384 1.768 0 3.284.132 3.728.192V9.34h-.004z"/></symbol><symbol id="icon-footer-2" viewBox="0 0 32 32"><path fill="#e61f5a" style="fill:var(--color4,#e61f5a)" d="M16.002 7.797c-4.54 0-8.204 3.664-8.204 8.204s3.664 8.204 8.204 8.204c4.54 0 8.204-3.664 8.204-8.204s-3.664-8.204-8.204-8.204zm0 13.536c-2.936 0-5.332-2.396-5.332-5.332s2.396-5.332 5.332-5.332 5.332 2.396 5.332 5.332-2.396 5.332-5.332 5.332zm8.54-15.784c-1.06 0-1.916.856-1.916 1.916s.856 1.916 1.916 1.916 1.916-.852 1.916-1.916a1.925 1.925 0 0 0-.56-1.356 1.906 1.906 0 0 0-1.356-.56zm7.452 10.452c0-2.208.02-4.396-.104-6.6-.124-2.56-.708-4.832-2.58-6.704C27.434.821 25.166.241 22.606.117c-2.208-.124-4.396-.104-6.6-.104-2.208 0-4.396-.02-6.6.104-2.56.124-4.832.708-6.704 2.58C.826 4.573.246 6.841.122 9.401c-.124 2.208-.104 4.396-.104 6.6s-.02 4.396.104 6.6c.124 2.56.708 4.832 2.58 6.704 1.876 1.876 4.144 2.456 6.704 2.58 2.208.124 4.396.104 6.6.104 2.208 0 4.396.02 6.6-.104 2.56-.124 4.832-.708 6.704-2.58 1.876-1.876 2.456-4.144 2.58-6.704.128-2.204.104-4.392.104-6.6zm-3.52 9.432a5.083 5.083 0 0 1-1.208 1.832 5.117 5.117 0 0 1-1.832 1.208c-2.104.836-7.1.648-9.432.648s-7.332.188-9.436-.644a5.083 5.083 0 0 1-1.832-1.208 5.117 5.117 0 0 1-1.208-1.832c-.832-2.108-.644-7.104-.644-9.436s-.188-7.332.644-9.436c.292-.728.644-1.272 1.208-1.832s1.104-.916 1.832-1.208c2.104-.832 7.104-.644 9.436-.644s7.332-.188 9.436.644a5.083 5.083 0 0 1 1.832 1.208 5.117 5.117 0 0 1 1.208 1.832c.832 2.104.644 7.104.644 9.436s.188 7.328-.648 9.432z"/></symbol><symbol id="icon-footer-3" viewBox="0 0 38 32"><path fill="#21a6df" style="fill:var(--color5,#21a6df)" d="M38.401 3.945c-1.411.617-2.946 1.062-4.527 1.235A7.934 7.934 0 0 0 37.331.783a15.368 15.368 0 0 1-4.988 1.927c-.736-.798-1.625-1.434-2.613-1.867S27.676.187 26.599.189c-4.356 0-7.86 3.583-7.86 7.981 0 .617.074 1.235.194 1.829C12.41 9.653 6.592 6.49 2.725 1.649a8.004 8.004 0 0 0-1.069 4.028 8.018 8.018 0 0 0 3.503 6.648 7.847 7.847 0 0 1-3.554-1.015v.098c0 3.878 2.701 7.092 6.302 7.831a8.218 8.218 0 0 1-2.07.271c-.512 0-.996-.052-1.484-.122.996 3.162 3.895 5.459 7.348 5.534a15.61 15.61 0 0 1-9.759 3.41 15.8 15.8 0 0 1-1.899-.098 22.022 22.022 0 0 0 12.073 3.579c14.456 0 22.367-12.154 22.367-22.703 0-.346 0-.692-.023-1.039a17.056 17.056 0 0 0 3.941-4.126z"/></symbol><symbol id="icon-footer-4" viewBox="0 0 43 32"><path fill="#e42f08" style="fill:var(--color6,#e42f08)" d="M41.724 5.212c-.242-.947-.718-1.811-1.377-2.505s-1.481-1.193-2.382-1.448C34.647.315 21.312.315 21.312.315s-13.334 0-16.653.944c-.901.255-1.723.754-2.382 1.448S1.142 4.265.9 5.212C.28 8.771-.02 12.382.002 16A60.713 60.713 0 0 0 .9 26.788c.243.948.718 1.811 1.377 2.505s1.481 1.193 2.382 1.448c3.318.944 16.653.944 16.653.944s13.334 0 16.653-.944c.901-.255 1.723-.754 2.382-1.448s1.135-1.558 1.377-2.505c.62-3.559.92-7.17.898-10.788a60.806 60.806 0 0 0-.898-10.788zM17.05 22.723V9.278L28.116 16 17.05 22.723z"/></symbol><symbol id="icon-partners-1" viewBox="0 0 94 32"><path fill="#737373" style="fill:var(--color7,#737373)" d="m21.262 29.646 5.636.117a39.36 39.36 0 0 1-5.636-2.452v2.335zm8.49-.774v.773l-2.855.117c5.371 1.824 10.285 2.072 13.934 1.051-2.928.029-6.739-.379-11.08-1.941zM89.919 12.06c2.34 0 4.253-1.883 4.253-4.218s-1.898-3.576-4.253-3.576c-2.34 0-4.252 1.255-4.252 3.576s1.898 4.218 4.252 4.218zm-4.267 17.586h8.52V13.519h-8.52v16.127zm-10.845 0h8.52V1.143l-8.519 3.984v24.518zM70.246 12.22c-2.678-2.656-7.416-2.496-7.416-2.496s-4.753-.161-7.416 2.496c-2.678 2.656-2.472 4.947-2.472 7.677s-.206 5.006 2.472 7.662c2.678 2.656 7.416 2.496 7.416 2.496s4.753.161 7.416-2.496c2.678-2.656 2.472-4.933 2.472-7.662-.015-2.744.191-5.035-2.472-7.677zM64.39 22.713c0 .525-.265 1.824-1.574 1.824s-1.575-1.299-1.575-1.824v-5.896c0-1.27 1.074-1.591 1.575-1.591s1.574.306 1.574 1.591v5.896zM48.763 12.22c-2.678-2.656-7.416-2.496-7.416-2.496s-4.738-.161-7.416 2.496c-.28.277-.544.569-.78.876-5.621-4.32-10.668-6.786-15.023-8.917V1.158l-3.311 1.547C6.812-.52 1.721.049.5 2.72c0 0-3.664 4.787 9.093 16.17v10.756h8.519v-4.174a43.658 43.658 0 0 1-2.854-1.985 90.507 90.507 0 0 1-5.65-4.583V14.38c1.928 2.145 4.488 4.583 7.857 7.341l.662.525v-4.349c0-1.007.25-2.656 1.589-2.656s1.56 1.007 1.56 2.189v7.107a39.351 39.351 0 0 0 8.49 4.32V15.153c0-2.729-1.972-5.458-5.974-5.458a6.518 6.518 0 0 0-5.665 3.196V4.966c6.165 3.05 12.345 6.786 14.7 8.508-1.501 2.131-1.368 4.101-1.368 6.378 0 2.729-.206 5.006 2.472 7.662s7.416 2.496 7.416 2.496 4.753.16 7.416-2.496c2.678-2.656 2.457-4.933 2.457-7.662 0-2.7.221-4.991-2.457-7.633zM9.594 5.127v9.238C2.428 6.411 3.87 3.273 4.415 2.821c1.986-1.664 5.518-1.168 9.476.306L9.595 5.126zm33.328 17.586c0 .525-.265 1.824-1.574 1.824s-1.575-1.299-1.575-1.824v-5.896c0-1.27 1.074-1.591 1.575-1.591s1.574.306 1.574 1.591v5.896z"/></symbol><symbol id="icon-partners-2" viewBox="0 0 46 32"><path fill="#737373" style="fill:var(--color7,#737373)" d="M.271.54h6.84v18.449c0 2.926 1.319 4.667 2.392 5.392-1.117.981-4.502 1.848-7.051-.247-1.495-1.238-2.18-3.297-2.18-5.215V.541zm42.722 15.337v-1.945h2.093V7.143h-2.295C41.903 3.05 38.289.009 33.972.009c-4.977 0-9.03 4.066-9.03 9.078v15.841c1.407.203 3.113-.027 4.546-1.238 1.503-1.238 2.181-3.288 2.181-5.215v-.592h3.411v-6.789h-3.411v-2.06c0-3.059 4.59-3.059 4.59 0v6.815c0 5.003 4.044 9.078 9.03 9.078v-6.762a2.293 2.293 0 0 1-2.295-2.29zM17.117 7.125v9.989c0 1.361-2.093 1.361-2.093 0V7.125H8.271v11.73c0 2.104.703 4.773 3.957 5.649 3.253.866 5.117-.937 5.117-.937-.185 1.185-1.275 2.06-3.069 2.236-1.363.141-3.095-.318-3.957-.69v6.214c2.207.663 4.528.866 6.823.415 4.141-.804 6.753-4.278 6.753-8.91V7.08h-6.779v.044z"/></symbol><symbol id="icon-partners-3" viewBox="0 0 44 32"><path fill="#737373" style="fill:var(--color7,#737373)" d="M43.52.062c-5.494 3.705-6.079 6.393-6.555 7.216-.456.843-.796 4.168-1.584 5.778-.796 1.631-3.686 2.917-4.495 3.456-.796.539-1.924 2.633-2.849 4.437-7.351-.304-11.383 2.682-17.626 6.469 1.999-.67 2.944-1.154 2.944-1.154 6.406-2.488 9.472-4.721 19.115-3.4.075 0 .129.041.19.055.265.152.36.477.211.746l-3.665 6.621a.813.813 0 0 1-.891.422c-8.622-1.645-15.429 1.196-21.685 1.285C1.639 32.069 0 29.678 0 29.567c0-.076.041-.117.116-.117 0 0 2.604 0 7.011-1.057 5.005-9.697 9.466-13.09 14.321-13.09 0 0 4.876 0 6.161 4.278 1.55-2.744 1.924-3.4 1.924-3.4.36-.65 2.38-5.336 5.875-9.773C38.91 1.985 41.555.886 43.52.063z"/></symbol><symbol id="icon-partners-4" viewBox="0 0 77 32"><path fill="#737373" style="fill:var(--color7,#737373)" d="m19.762 2.823-5.186 1.089-.024 16.859c0 3.114 2.371 5.126 5.521 5.126 1.749 0 3.03-.32 3.737-.698v-4.002c-.683.272-4.036 1.243-4.036-1.859v-7.482h4.036V7.381h-4.036l-.012-4.558zm10.671 6.109-.323-1.551h-4.599v18.138h5.306V13.313c1.258-1.634 3.378-1.314 4.06-1.101v-4.83c-.719-.249-3.198-.71-4.443 1.551zM41.488.372l-5.342 1.125v4.286l5.342-1.125V.372zM5.378 12.721c0-.817.695-1.137 1.809-1.148 1.617 0 3.677.485 5.294 1.35V7.974c-1.761-.687-3.521-.959-5.282-.959-4.312 0-7.186 2.226-7.186 5.943 0 5.825 8.084 4.878 8.084 7.388 0 .971-.85 1.291-2.036 1.291-1.761 0-4.036-.722-5.821-1.681v4.736a14.877 14.877 0 0 0 5.809 1.196c4.419 0 7.462-1.871 7.462-5.659 0-6.263-8.132-5.138-8.132-7.506zm71.274 3.942c0-5.387-2.635-9.637-7.689-9.637s-8.132 4.25-8.132 9.602c0 6.334 3.629 9.258 8.803 9.258 2.539 0 4.443-.568 5.893-1.362V20.57c-1.449.722-3.114 1.16-5.222 1.16-2.072 0-3.892-.722-4.132-3.185h10.408c.024-.272.072-1.373.072-1.883zm-10.528-1.989c0-2.368 1.473-3.362 2.803-3.362 1.305 0 2.695.995 2.695 3.362h-5.497zM52.602 7.026c-2.084 0-3.425.971-4.168 1.646l-.275-1.302h-4.683v24.247l5.318-1.113.012-5.943c.767.556 1.904 1.326 3.761 1.326 3.809 0 7.282-2.747 7.282-9.424.012-6.109-3.509-9.436-7.246-9.436zm-1.269 14.503c-1.246 0-1.988-.45-2.503-.995l-.036-7.814c.551-.604 1.318-1.042 2.539-1.042 1.94 0 3.282 2.155 3.282 4.901.012 2.83-1.305 4.949-3.282 4.949zm-15.175 3.99H41.5V7.381h-5.342v18.138z"/></symbol><symbol id="icon-partners-5" viewBox="0 0 53 32"><path fill="#737373" style="fill:var(--color7,#737373)" d="M15.181 11.677c-.059 1.848.872 2.666.895 3.186a.657.657 0 0 1-.337.511l-1.053.731a.883.883 0 0 1-.463.157c-.035-.002-.674.149-1.685-2.089-.617.764-1.402 1.377-2.295 1.794s-1.87.625-2.857.609c-1.34.073-4.97-.754-4.783-4.586-.131-3.123 2.803-5.063 5.836-4.899.584.002 1.777.03 3.866.512V6.329c.221-2.159-1.21-3.834-3.687-3.582-.197.001-1.596-.041-3.772.825-.606.276-.683.23-.885.23-.61 0-.359-1.752-.242-1.974C4.148 1.306 6.67.331 9.145.345a6.358 6.358 0 0 1 4.582 1.41 5.694 5.694 0 0 1 1.454 4.272l-.001 5.653zM8.07 14.319c2.668-.038 3.798-1.629 4.056-2.486.202-.82.169-1.339.169-2.235a14.242 14.242 0 0 0-3.255-.397c-1.247-.093-3.523.459-3.434 2.632-.102 1.37.915 2.562 2.465 2.487zM22.134 16.2c-.647.059-.948-.396-1.043-.846L16.993 1.921a3.113 3.113 0 0 1-.158-.7.375.375 0 0 1 .317-.428c.02-.003-.175 0 1.831 0 .722-.072.958.492 1.033.846l2.939 11.49 2.728-11.49c.044-.263.242-.903 1.053-.835h1.412c.179-.015.914-.041 1.043.846l2.75 11.637L34.975 1.65c.039-.178.224-.928 1.043-.846h1.623c.07-.011.506-.066.432.7-.035.151.281-.87-4.34 13.861-.095.45-.397.905-1.043.846h-1.538c-.9.094-1.029-.788-1.043-.877L27.381 4.146l-2.697 11.176c-.013.089-.142.971-1.043.877l-1.506.001zm22.502.459c-.484.001-2.791-.024-4.72-1.003a1.042 1.042 0 0 1-.642-.972v-.877c0-.689.51-.563.727-.481.826.331 1.356.583 2.371.783 3.016.614 4.342-.188 4.667-.366 1.082-.637 1.168-2.095.432-2.851-.862-.717-1.274-.744-4.372-1.713-.382-.105-3.596-1.11-3.603-4.272-.05-2.304 2.061-4.583 5.72-4.565 1.043-.001 3.82.337 4.572 1.274a.982.982 0 0 1 .158.574v.825c0 .362-.133.543-.401.543-.634-.07-1.76-.911-4.045-.877-.567-.029-3.282.074-3.16 2.037-.035 1.547 2.19 2.127 2.444 2.194 3 .895 4.003 1.043 5.194 2.413 1.41 1.815.65 3.941.358 4.523-1.57 3.059-5.63 2.81-5.699 2.808zm3.308 8.555c-5.762 4.22-14.127 6.466-21.269 6.466A38.787 38.787 0 0 1 .569 21.83c-.537-.48-.063-1.139.59-.773a52.789 52.789 0 0 0 26.074 6.863 52.223 52.223 0 0 0 19.879-4.043c.969-.408 1.791.636.833 1.336zm2.402-2.716c-.737-.94-4.878-.439-6.732-.219-.559.063-.653-.418-.147-.773 3.297-2.298 8.712-1.64 9.334-.867s-.169 6.152-3.255 8.722c-.474.397-.927.188-.717-.334.694-1.734 2.254-5.588 1.516-6.529z"/></symbol><symbol id="icon-partners-6" viewBox="0 0 34 32"><path fill="#737373" style="fill:var(--color7,#737373)" d="M29.776 12.345a3.72 3.72 0 0 0-2.653 1.118c-2.499-1.736-5.865-2.854-9.596-2.973l1.939-8.773 6.173 1.392a2.755 2.755 0 0 0 2.744 2.756c1.54 0 2.779-1.272 2.779-2.791S29.93.283 28.383.283c-1.078 0-2.009.654-2.471 1.546L19.095.311c-.343-.091-.679.155-.77.499l-2.128 9.672c-3.702.155-7.034 1.272-9.54 3.009a3.713 3.713 0 0 0-2.688-1.146c-3.891 0-5.165 5.244-1.603 7.036a7.899 7.899 0 0 0-.182 1.736c0 5.891 6.607 10.663 14.719 10.663 8.147 0 14.754-4.773 14.754-10.663a6.73 6.73 0 0 0-.217-1.764c3.492-1.8 2.205-7.008-1.666-7.008zm-21.76 7.409a2.774 2.774 0 0 1 2.779-2.791c1.512 0 2.744 1.237 2.744 2.791a2.755 2.755 0 0 1-2.744 2.756 2.762 2.762 0 0 1-2.779-2.756zm14.999 6.572c-2.548 2.559-9.736 2.559-12.283 0-.28-.246-.28-.682 0-.963a.67.67 0 0 1 .924 0c1.946 2.003 8.399 2.039 10.428 0a.67.67 0 0 1 .924 0c.287.281.287.717.007.963zm-.056-3.81a2.754 2.754 0 0 1-2.744-2.756c0-1.546 1.232-2.791 2.744-2.791a2.774 2.774 0 1 1 0 5.547z"/></symbol><symbol id="icon-servise-1" viewBox="0 0 32 32"><path fill="#ffa62b" style="fill:var(--color8,#ffa62b)" d="M18.386 8.29a4.536 4.536 0 0 1-6.353-1.208 4.53 4.53 0 0 1 .035-5.086A4.545 4.545 0 0 1 13.352.751a4.535 4.535 0 0 1 5.037 7.539h-.002zm-1.258-5.653a2.262 2.262 0 0 0-2.565-.057 2.264 2.264 0 0 0 .045 3.821 2.268 2.268 0 0 0 2.521-3.763v-.002zm5.916.068a3.383 3.383 0 0 1 4.295.426 3.431 3.431 0 0 1-1.103 5.576 3.377 3.377 0 0 1-3.706-.739 3.426 3.426 0 0 1 .516-5.261l-.002-.002zm1.088 3.649a1.13 1.13 0 0 0 1.846-.371c.057-.138.086-.285.085-.433a1.15 1.15 0 0 0-.333-.8 1.155 1.155 0 0 0-.796-.34 1.145 1.145 0 0 0-.805.333 1.117 1.117 0 0 0-.329.806c.001.302.119.591.331.807v-.002zM4.965 26.024h4.103v2.278H4.965a2.711 2.711 0 0 1-1.909-.809 2.746 2.746 0 0 1-.789-1.927v-4.103a2.267 2.267 0 0 1-1.61-.753A2.28 2.28 0 0 1 0 19.044v-4.946a4.103 4.103 0 0 1 1.179-2.852 3.998 3.998 0 0 1 2.811-1.185h4.171a6.606 6.606 0 0 0-1.247 2.28H3.99c-.46.013-.898.201-1.224.526-.32.329-.499.771-.499 1.231v5.059h2.267v6.406a.454.454 0 0 0 .114.342c.091.07.202.11.317.113v.004zM21.511 11.25a3.986 3.986 0 0 0-2.833-1.186h-5.621a4.003 4.003 0 0 0-2.811 1.185A4.1 4.1 0 0 0 9.067 14.1v7.204a2.407 2.407 0 0 0 .657 1.664 2.264 2.264 0 0 0 1.609.752v5.265a2.728 2.728 0 0 0 .793 1.938c.408.381.922.628 1.473.707h4.533a2.607 2.607 0 0 0 2.267-2.645v-5.268a2.267 2.267 0 0 0 1.61-.753 2.286 2.286 0 0 0 .658-1.664v-7.203a4.08 4.08 0 0 0-1.156-2.852v.002zm-1.11 10.166h-2.267v7.571a.457.457 0 0 1-.136.317.39.39 0 0 1-.318.135h-3.649a.476.476 0 0 1-.453-.453v-7.571h-2.244v-7.317c0-.46.179-.902.499-1.231a1.806 1.806 0 0 1 1.224-.526h5.621c.343.006.678.112.961.306s.505.465.637.783c.086.212.129.44.125.669v7.317zM26.77 28.3h-4.103v-2.278h4.08a.544.544 0 0 0 .317-.113.456.456 0 0 0 .136-.345v-6.406h2.267v-5.059a1.759 1.759 0 0 0-.499-1.231 1.806 1.806 0 0 0-1.224-.526H24.82a6.59 6.59 0 0 0-1.247-2.28h4.171a4.02 4.02 0 0 1 2.811 1.185 4.101 4.101 0 0 1 1.179 2.852v4.946c0 .619-.233 1.213-.655 1.662a2.385 2.385 0 0 1-1.612.755v4.103a2.74 2.74 0 0 1-.789 1.927 2.709 2.709 0 0 1-1.908.809zM6.801 2.129a3.388 3.388 0 0 0-3.142 2.112 3.433 3.433 0 0 0 .739 3.724 3.39 3.39 0 0 0 3.714.743A3.387 3.387 0 0 0 10.2 5.549a3.428 3.428 0 0 0-2.098-3.16 3.38 3.38 0 0 0-1.301-.261zm0 4.56a1.145 1.145 0 0 1-.805-.333 1.133 1.133 0 0 1-.329-.806A1.144 1.144 0 0 1 6.8 4.41a1.15 1.15 0 0 1 1.133 1.14A1.144 1.144 0 0 1 6.8 6.69z"/></symbol><symbol id="icon-servise-2" viewBox="0 0 39 32"><path fill="#ffa62b" style="fill:var(--color8,#ffa62b)" d="m36.696 9.064-2.46 3.7a16.001 16.001 0 0 1-.44 15.16H6.076A16.003 16.003 0 0 1 8.295 8.959a16.004 16.004 0 0 1 18.802-3.334l3.7-2.46A19.995 19.995 0 0 0 6.224 5.503a19.997 19.997 0 0 0-3.587 24.422 3.994 3.994 0 0 0 3.44 2h27.7a4 4 0 0 0 3.48-2 20.001 20.001 0 0 0-.54-20.88l-.02.02zm-19.58 13.68a3.993 3.993 0 0 0 2.83 1.173 4.007 4.007 0 0 0 2.83-1.173l11.32-16.98-16.98 11.32a3.993 3.993 0 0 0-1.173 2.83 4.007 4.007 0 0 0 1.173 2.83z"/></symbol><symbol id="icon-support-1" viewBox="0 0 32 32"><path fill="#00a0c1" style="fill:var(--color1,#00a0c1)" d="M24.858 17.331a1.693 1.693 0 0 0-1.834-.365c-.204.084-.39.209-.546.365l-2.684 2.684c-1.244-.37-3.566-1.212-5.038-2.684s-2.313-3.793-2.684-5.038l2.684-2.684a1.678 1.678 0 0 0 .365-1.834 1.678 1.678 0 0 0-.365-.546L8.021.494A1.678 1.678 0 0 0 6.187.129c-.204.084-.39.209-.546.365L1.075 5.06c-.64.64-1 1.519-.987 2.416.039 2.398.673 10.725 7.237 17.289s14.891 7.196 17.29 7.237h.047c.889 0 1.729-.35 2.366-.987l4.566-4.566a1.693 1.693 0 0 0 .365-1.834 1.678 1.678 0 0 0-.365-.546l-6.735-6.737zm-.214 11.301c-2.101-.035-9.291-.599-14.94-6.25C4.037 16.715 3.488 9.5 3.454 7.441L6.83 4.065l4.354 4.354-2.177 2.177a1.685 1.685 0 0 0-.458 1.536c.04.194 1.029 4.785 3.824 7.58s7.387 3.783 7.58 3.824a1.663 1.663 0 0 0 1.535-.456l2.179-2.177 4.354 4.354-3.378 3.376z"/></symbol><symbol id="icon-support-2" viewBox="0 0 32 32"><path fill="#fff" style="fill:var(--color2,#fff)" d="M13.111 18.667c3.554 0 6.444-2.791 6.444-6.222s-2.89-6.222-6.444-6.222-6.444 2.791-6.444 6.222 2.89 6.222 6.444 6.222zm0-9.334c1.777 0 3.222 1.395 3.222 3.111s-1.445 3.111-3.222 3.111-3.222-1.395-3.222-3.111 1.445-3.111 3.222-3.111z"/><path fill="#fff" style="fill:var(--color2,#fff)" d="M12.193 31.262a1.581 1.581 0 0 0 1.836 0c.481-.339 11.794-8.479 11.748-18.64C25.777 5.662 20.094 0 13.11 0S.443 5.663.443 12.614C.397 22.783 11.71 30.923 12.191 31.262zm.918-28.106c5.239 0 9.5 4.246 9.5 9.475.033 7.002-6.948 13.29-9.5 15.352-2.551-2.064-9.533-8.353-9.5-15.36 0-5.221 4.261-9.467 9.5-9.467z"/></symbol><symbol id="icon-support-3" viewBox="0 0 32 32"><path fill="#00a0c1" style="fill:var(--color1,#00a0c1)" d="M30.805.524c-.175-.182-.397-.307-.639-.362s-.494-.037-.726.051L.839 11.029c-.247.097-.459.27-.609.496a1.39 1.39 0 0 0 0 1.536c.15.226.362.399.609.496l12.48 5.192 4.992 12.98c.094.245.255.457.462.608s.454.236.708.244c.263-.006.518-.094.731-.253s.376-.382.465-.639l10.4-29.745c.089-.239.11-.5.062-.751s-.164-.483-.335-.669zM19.482 27.443l-3.627-9.464 6.227-6.476-1.833-1.906-6.279 6.53-9.048-3.826 22.79-8.558-8.229 23.701z"/></symbol><symbol id="icon-address-1" viewBox="0 0 32 32"><path fill="#8EC2F2" style="fill:var(--color1,#8ec2f2)" d="M24.858 17.331a1.693 1.693 0 0 0-1.834-.365c-.204.084-.39.209-.546.365l-2.684 2.684c-1.244-.37-3.566-1.212-5.038-2.684s-2.313-3.793-2.684-5.038l2.684-2.684a1.678 1.678 0 0 0 .365-1.834 1.678 1.678 0 0 0-.365-.546L8.021.494A1.678 1.678 0 0 0 6.187.129c-.204.084-.39.209-.546.365L1.075 5.06c-.64.64-1 1.519-.987 2.416.039 2.398.673 10.725 7.237 17.289s14.891 7.196 17.29 7.237h.047c.889 0 1.729-.35 2.366-.987l4.566-4.566a1.693 1.693 0 0 0 .365-1.834 1.678 1.678 0 0 0-.365-.546l-6.735-6.737zm-.214 11.301c-2.101-.035-9.291-.599-14.94-6.25C4.037 16.715 3.488 9.5 3.454 7.441L6.83 4.065l4.354 4.354-2.177 2.177a1.685 1.685 0 0 0-.458 1.536c.04.194 1.029 4.785 3.824 7.58s7.387 3.783 7.58 3.824a1.663 1.663 0 0 0 1.535-.456l2.179-2.177 4.354 4.354-3.378 3.376z"/></symbol><symbol id="icon-address-2" viewBox="0 0 32 32"><path fill="#8EC2F2" style="fill:var(--color2,#8ec2f2)" d="M13.111 18.667c3.554 0 6.444-2.791 6.444-6.222s-2.89-6.222-6.444-6.222-6.444 2.791-6.444 6.222 2.89 6.222 6.444 6.222zm0-9.334c1.777 0 3.222 1.395 3.222 3.111s-1.445 3.111-3.222 3.111-3.222-1.395-3.222-3.111 1.445-3.111 3.222-3.111z"/><path fill="#8EC2F2" style="fill:var(--color2,#8ec2f2)" d="M12.193 31.262a1.581 1.581 0 0 0 1.836 0c.481-.339 11.794-8.479 11.748-18.64C25.777 5.662 20.094 0 13.11 0S.443 5.663.443 12.614C.397 22.783 11.71 30.923 12.191 31.262zm.918-28.106c5.239 0 9.5 4.246 9.5 9.475.033 7.002-6.948 13.29-9.5 15.352-2.551-2.064-9.533-8.353-9.5-15.36 0-5.221 4.261-9.467 9.5-9.467z"/></symbol><symbol id="icon-address-3" viewBox="0 0 32 32"><path fill="#8EC2F2" style="fill:var(--color1,#8ec2f2)" d="M30.805.524c-.175-.182-.397-.307-.639-.362s-.494-.037-.726.051L.839 11.029c-.247.097-.459.27-.609.496a1.39 1.39 0 0 0 0 1.536c.15.226.362.399.609.496l12.48 5.192 4.992 12.98c.094.245.255.457.462.608s.454.236.708.244c.263-.006.518-.094.731-.253s.376-.382.465-.639l10.4-29.745c.089-.239.11-.5.062-.751s-.164-.483-.335-.669zM19.482 27.443l-3.627-9.464 6.227-6.476-1.833-1.906-6.279 6.53-9.048-3.826 22.79-8.558-8.229 23.701z"/></symbol><symbol id="serba-logo" viewBox="0 0 134 31"><path d="M45.203 24.778a9.016 9.016 0 0 1-2.945-1.12v-2.864c.947.544 1.96.965 3.012 1.254 1.077.313 2.191.476 3.312.484 1.208 0 2.087-.144 2.645-.436a1.462 1.462 0 0 0 .835-1.41 1.768 1.768 0 0 0-.382-1.184 3.32 3.32 0 0 0-1.307-.818 27.15 27.15 0 0 0-2.76-.872 18.05 18.05 0 0 1-3.13-1.152 4.361 4.361 0 0 1-1.74-1.486 4.24 4.24 0 0 1-.587-2.34 3.894 3.894 0 0 1 1.827-3.5c1.213-.793 2.847-1.19 4.902-1.187 1.055-.002 2.109.098 3.145.3.865.146 1.7.428 2.477.836v2.81a8.741 8.741 0 0 0-2.394-.904 12.76 12.76 0 0 0-2.894-.318c-1.182 0-2.087.143-2.709.433a1.551 1.551 0 0 0-.937 1.537c-.018.416.126.824.402 1.136.36.347.797.604 1.275.751.588.212 1.53.485 2.827.818 2.03.56 3.442 1.218 4.232 1.973.79.756 1.187 1.803 1.189 3.141a3.89 3.89 0 0 1-1.705 3.31c-1.139.821-2.824 1.233-5.055 1.235a16.426 16.426 0 0 1-3.535-.427ZM61.05 22.974c-1.687-1.485-2.53-3.574-2.527-6.266 0-2.629.753-4.711 2.26-6.247 1.506-1.536 3.653-2.305 6.44-2.308a9.755 9.755 0 0 1 4.718 1.054 7.007 7.007 0 0 1 2.928 2.905 8.85 8.85 0 0 1 .989 4.227v1.67H61.735c.113 1.52.75 2.65 1.913 3.393 1.162.742 2.755 1.116 4.78 1.12a17.617 17.617 0 0 0 3.11-.283c.95-.162 1.88-.414 2.78-.754v2.702c-.913.34-1.861.582-2.827.719-1.145.186-2.304.28-3.464.283-2.969.004-5.294-.734-6.977-2.215Zm11.627-7.335c-.045-1.515-.541-2.69-1.489-3.527-.947-.835-2.291-1.252-4.031-1.25-1.7 0-3.016.434-3.95 1.301a4.728 4.728 0 0 0-1.472 3.476h10.942ZM79.535 8.656h3.283v2.864a5.873 5.873 0 0 1 2.827-2.17 11.738 11.738 0 0 1 4.233-.7v2.638a10.63 10.63 0 0 0-4.418.837 4.692 4.692 0 0 0-2.55 2.638v9.923h-3.375V8.656ZM99.098 24.505a8.524 8.524 0 0 1-2.929-2.158v2.34h-3.28V0h3.382v10.792a6.875 6.875 0 0 1 2.843-1.97 10.362 10.362 0 0 1 3.748-.669 8.687 8.687 0 0 1 4.335 1.086 7.82 7.82 0 0 1 3.012 3.026 9.665 9.665 0 0 1 0 8.91 7.602 7.602 0 0 1-3.012 2.973 8.871 8.871 0 0 1-4.335 1.054 9.483 9.483 0 0 1-3.764-.697Zm5.957-2.709a5.178 5.178 0 0 0 2.075-2.055 6.517 6.517 0 0 0 0-6.079 5.327 5.327 0 0 0-2.075-2.075 6.022 6.022 0 0 0-2.961-.732 6.295 6.295 0 0 0-3.65 1.101 5.41 5.41 0 0 0-2.173 2.94v3.61a5.783 5.783 0 0 0 2.19 2.924 6.205 6.205 0 0 0 3.633 1.086 6.084 6.084 0 0 0 2.961-.713v-.007ZM115.231 23.71c-1.172-.994-1.758-2.337-1.756-4.03 0-1.778.563-3.157 1.69-4.137 1.126-.98 2.727-1.465 4.803-1.454 2.207 0 4.081.445 5.622 1.336v-.837c0-1.273-.386-2.214-1.157-2.823-.772-.609-1.982-.914-3.63-.916a14.149 14.149 0 0 0-2.869.283c-.857.167-1.694.43-2.492.783V9.178c.834-.36 1.712-.614 2.61-.754 1.028-.184 2.07-.28 3.114-.283 2.656 0 4.625.584 5.906 1.753 1.281 1.17 1.918 2.79 1.912 4.863v9.923h-3.187v-1.805a6.75 6.75 0 0 1-2.461 1.722 9.074 9.074 0 0 1-3.461.585c-1.925.009-3.473-.482-4.644-1.473Zm8.418-1.723a4.297 4.297 0 0 0 1.941-1.77v-2.173a8.768 8.768 0 0 0-4.854-1.403c-1.294 0-2.259.25-2.894.75-.638.504-.956 1.274-.956 2.29 0 1.964 1.282 2.944 3.846 2.94a6.58 6.58 0 0 0 2.914-.634h.003Z" fill="#252B42"/><path d="M20.283 26.917v.073a.056.056 0 0 0 0 .022v.051a.76.76 0 0 1 0 .083 2.25 2.25 0 0 1-.054.245c0 .038-.02.077-.032.118l-.035.118-.038.114c0 .038-.029.076-.045.115l-.045.114c-.015.039-.022.054-.035.083-.038.083-.08.169-.124.251-.045.083-.08.14-.124.207l-.051.083a5.88 5.88 0 0 1-.258.37 7 7 0 0 1-.682.763 5.318 5.318 0 0 1-1.875 1.082 4.51 4.51 0 0 1-1.249.191c-.95 0-1.87-.326-2.607-.923L.781 17.847a3.926 3.926 0 0 1 0-4.595l3.362-3.387a4.383 4.383 0 0 0-.223 1.382v.2a4.362 4.362 0 0 0 1.842 3.36l10.41 10.395a4.31 4.31 0 0 0 3.49 1.766h.28c.09 0 .226-.035.341-.051Z" fill="#00A0C1"/><path d="M24.592 22.223c0 .484-.088.964-.261 1.416a3.94 3.94 0 0 1-1.488 1.852l-2.36 2.355c0-.041.03-.082.042-.127v-.032c0-.038.026-.08.035-.12 0-.042.023-.087.035-.131a.044.044 0 0 1 0-.02l.029-.133c0-.035 0-.073.022-.108a.238.238 0 0 0 0-.048.609.609 0 0 0 0-.076c.02-.12.032-.24.039-.36v-.344a4.388 4.388 0 0 0-1.782-3.475L7.111 11.097a3.93 3.93 0 0 1-.246-3.628 3.79 3.79 0 0 1 .548-.894l3.143-3.138-.032.095v.042c0 .013-.022.073-.032.108l-.019.08c-.032.12-.058.242-.077.366v.193c0 .013 0 .096-.016.14V4.934a4.28 4.28 0 0 0 .727 2.291 4.37 4.37 0 0 0 1.183 1.187L23.942 20.05c.427.645.653 1.401.65 2.174Z" fill="#00A0C1"/><path d="M31.234 15.55a3.894 3.894 0 0 1-.743 2.297l-3.34 3.335c.135-.427.204-.872.204-1.32v-.198a4.308 4.308 0 0 0-.825-2.348 4.441 4.441 0 0 0-.937-.955L15.043 5.83a4.342 4.342 0 0 0-3.347-1.582h-.257c-.221.013-.44.043-.657.089v-.121l.02-.128c0-.031 0-.07.021-.105a.092.092 0 0 1 0-.028c0-.032 0-.064.023-.096.022-.031.025-.108.041-.162l.026-.086a4.08 4.08 0 0 1 .13-.347l.048-.111.054-.108.048-.096.086-.153.042-.066a3.38 3.38 0 0 1 .146-.223l.893-.891.07-.026h.032l.057-.07a3.931 3.931 0 0 1 5.504-.54L30.772 13.71c.303.566.462 1.198.462 1.84Z" fill="#00A0C1"/></symbol><symbol id="serba-icon" viewBox="0 0 95 95"><path d="M61.997 82.442v.225a.172.172 0 0 0 0 .069v.156c.004.085.004.17 0 .255a6.967 6.967 0 0 1-.166.754c0 .117-.059.235-.098.362-.039.127-.068.235-.107.362l-.117.352c0 .118-.088.235-.137.353-.049.117-.088.235-.137.352-.048.117-.068.166-.107.254a14.23 14.23 0 0 1-.38.774c-.137.254-.245.43-.381.636l-.156.254c-.244.382-.518.774-.791 1.136a21.49 21.49 0 0 1-2.089 2.349 16.27 16.27 0 0 1-5.739 3.328c-1.241.375-2.53.573-3.825.587a12.667 12.667 0 0 1-7.984-2.838L2.274 54.547a12.111 12.111 0 0 1 0-14.133L12.571 30a13.535 13.535 0 0 0-.683 4.248v.616a13.46 13.46 0 0 0 1.63 5.822 13.42 13.42 0 0 0 4.011 4.514l31.877 31.967a13.441 13.441 0 0 0 2.88 2.887 13.16 13.16 0 0 0 7.807 2.545h.86c.272 0 .692-.108 1.044-.157Z" fill="#00A0C1"/><path d="M75 67.722a12.25 12.25 0 0 1-.796 4.35c-.32.825-.727 1.611-1.213 2.348a12.053 12.053 0 0 1-3.32 3.344L62.488 85c0-.127.087-.254.126-.391v-.098c0-.117.077-.244.107-.371 0-.127.068-.265.106-.401a.138.138 0 0 1 0-.059l.088-.41c0-.108 0-.226.068-.333a.747.747 0 0 0 0-.147 1.916 1.916 0 0 0 0-.235c.058-.366.097-.735.116-1.105v-1.056a13.578 13.578 0 0 0-1.47-5.98 13.475 13.475 0 0 0-3.956-4.698l-35.916-36.18a12.163 12.163 0 0 1-.748-11.147c.427-.99.99-1.914 1.67-2.748L32.249 10l-.096.293v.128c0 .039-.068.224-.097.332l-.058.244c-.098.37-.175.746-.233 1.125v.596c0 .04 0 .294-.05.43v1.448a13.23 13.23 0 0 0 2.214 7.04 13.371 13.371 0 0 0 3.601 3.648l35.49 35.76A12.09 12.09 0 0 1 75 67.721Z" fill="#00A0C1"/><path d="M95 47.632a12.148 12.148 0 0 1-2.251 7.084L82.623 65c.41-1.318.618-2.69.619-4.072v-.608a13.43 13.43 0 0 0-2.503-7.242 13.59 13.59 0 0 0-2.84-2.944l-31.981-32.47a13.026 13.026 0 0 0-10.145-4.877h-.783a13.68 13.68 0 0 0-1.99.275v-.373l.058-.392c0-.098 0-.216.068-.324a.29.29 0 0 1 0-.088c0-.098 0-.197.067-.295.068-.098.077-.333.126-.5l.077-.265c.116-.363.251-.726.396-1.07l.145-.343.164-.334.145-.294.261-.471.126-.206c.135-.236.29-.461.444-.687l2.706-2.747.212-.079h.097l.174-.216A11.86 11.86 0 0 1 46.27.058c3.125-.312 6.244.64 8.68 2.652L93.6 41.96A12.199 12.199 0 0 1 95 47.632Z" fill="#00A0C1"/></symbol></defs></svg>